# xmcd CD database file
#
# Track frame offsets:
#	150
#	29826
#	51674
#	77305
#	92156
#	117554
#	144145
#	168620
#	199183
#	217636
#	241451
#
# Disc length: 3504 seconds
#
# Revision: 0
# Processed by: cddbd v1.5.2PL0 Copyright (c) Steve Scherf et al.
# Submitted via: CDex 1.70beta1
#
DISCID=990dae0b
DTITLE=Paolo Ricca - Batik
DYEAR=2005
DGENRE=Jazz
TTITLE0=Batik
TTITLE1=Pastorale
TTITLE2=Zeta
TTITLE3=Source Of Light
TTITLE4=Sun Rave
TTITLE5=Neve
TTITLE6=1978
TTITLE7=Sporca Estate
TTITLE8=El Jarid
TTITLE9=Strike
TTITLE10=Vida
EXTD=YEAR: 2005
EXTT0=
EXTT1=
EXTT2=
EXTT3=
EXTT4=
EXTT5=
EXTT6=
EXTT7=
EXTT8=
EXTT9=
EXTT10=
PLAYORDER=
